<svg xmlns="http://www.w3.org/2000/svg" width="44" height="44" viewBox="0 0 44 44">
  <g id="Group_10225" data-name="Group 10225" transform="translate(-40 -259)">
    <circle id="Ellipse_66" data-name="Ellipse 66" cx="22" cy="22" r="22" transform="translate(40 259)" fill="#f8e2e2"/>
    <g id="noun-bill-4905109" transform="translate(52 268)">
      <path id="Path_5" data-name="Path 5" d="M299.326,106.414a2.28,2.28,0,0,0-1.826,2.236v.053a2.282,2.282,0,0,0,2.282,2.282h.94a.429.429,0,0,1,.429.429v0a.429.429,0,0,1-.429.429h-2.309a.913.913,0,0,0,0,1.826h.913v.456a.913.913,0,1,0,1.826,0v-.5a2.255,2.255,0,0,0,1.826-2.214v0a2.255,2.255,0,0,0-2.255-2.255h-.94a.455.455,0,0,1-.456-.456v-.053a.455.455,0,0,1,.456-.456h2.282a.913.913,0,1,0,0-1.826h-.913v-.456a.913.913,0,1,0-1.826,0Z" transform="translate(-290.197 -101.347)" fill="#ff6565" fill-rule="evenodd"/>
      <path id="Path_6" data-name="Path 6" d="M177.583,37.282A2.282,2.282,0,0,0,175.3,35H159.782a2.282,2.282,0,0,0-2.282,2.282v21a2.282,2.282,0,0,0,2.282,2.282H175.3a2.282,2.282,0,0,0,2.282-2.282Zm-1.826,0v21a.456.456,0,0,1-.456.456H159.782a.456.456,0,0,1-.456-.456v-21a.456.456,0,0,1,.456-.456H175.3a.456.456,0,0,1,.456.456Z" transform="translate(-157.5 -35)" fill="#ff6565" fill-rule="evenodd"/>
      <path id="Path_7" data-name="Path 7" d="M228.415,334.326h10.954a.913.913,0,1,0,0-1.826H228.415a.913.913,0,1,0,0,1.826Z" transform="translate(-223.851 -316.982)" fill="#ff6565" fill-rule="evenodd"/>
      <path id="Path_8" data-name="Path 8" d="M228.413,404.326h9.128a.913.913,0,1,0,0-1.826h-9.128a.913.913,0,1,0,0,1.826Z" transform="translate(-223.849 -383.33)" fill="#ff6565" fill-rule="evenodd"/>
    </g>
  </g>
</svg>
