<svg xmlns="http://www.w3.org/2000/svg" width="44" height="44" viewBox="0 0 44 44">
  <g id="Group_10222" data-name="Group 10222" transform="translate(-40 -259)">
    <circle id="Ellipse_66" data-name="Ellipse 66" cx="22" cy="22" r="22" transform="translate(40 259)" fill="#e2f8eb"/>
    <g id="Group_10221" data-name="Group 10221" transform="translate(50.421 268.263)">
      <g id="noun-refresh-1713562" transform="translate(0)">
        <path id="Path_9" data-name="Path 9" d="M202.3,211.933a.837.837,0,0,0-.714,1.019,10.166,10.166,0,0,1,.352,2.678A10.487,10.487,0,0,1,185.4,224.1l2.234-.26a.8.8,0,0,0-.05-1.589c-1.393.123-2.816.315-4.217.48a.834.834,0,0,0-.694.959l.9,4.087a.8.8,0,1,0,1.57-.33l-.4-1.868a12.09,12.09,0,0,0,18.808-9.952,11.755,11.755,0,0,0-.412-3.1.827.827,0,0,0-.755-.6q-.04,0-.081,0Z" transform="translate(-179.383 -202.549)" fill="#01ad42" fill-rule="evenodd"/>
        <path id="Path_10" data-name="Path 10" d="M139.269,33.6a.807.807,0,0,0-.6.344.8.8,0,0,0-.109.675l.543,2.028A12.106,12.106,0,0,0,120.4,46.684a11.666,11.666,0,0,0,.4,3.078.8.8,0,0,0,.378.487.811.811,0,0,0,1.1-.3.8.8,0,0,0,.079-.609,10.074,10.074,0,0,1-.352-2.658,10.5,10.5,0,0,1,16.735-8.343l-2.536.43a.8.8,0,1,0,.272,1.579l4.186-.709a.806.806,0,0,0,.541-.354.8.8,0,0,0,.1-.635l-1.2-4.446h0a.8.8,0,0,0-.281-.428.809.809,0,0,0-.484-.172c-.027,0-.054,0-.081,0Z" transform="translate(-120.401 -33.603)" fill="#01ad42" fill-rule="evenodd"/>
      </g>
      <path id="Icon_metro-dollar2" data-name="Icon metro-dollar2" d="M17.513,11.8a3.081,3.081,0,0,1-.806,2.134,3.478,3.478,0,0,1-2.093,1.105v1.417a.249.249,0,0,1-.259.259H13.261A.263.263,0,0,1,13,16.455V15.038a5.1,5.1,0,0,1-1.032-.251,4.973,4.973,0,0,1-1.421-.749,4.615,4.615,0,0,1-.377-.3q-.1-.1-.142-.146a.246.246,0,0,1-.016-.332l.834-1.093a.252.252,0,0,1,.186-.1.2.2,0,0,1,.194.073l.016.016a4.228,4.228,0,0,0,1.968,1.012,2.828,2.828,0,0,0,.6.065,1.963,1.963,0,0,0,1.154-.348,1.134,1.134,0,0,0,.5-.988.821.821,0,0,0-.121-.429,1.517,1.517,0,0,0-.271-.34,2.222,2.222,0,0,0-.474-.3q-.324-.166-.534-.259t-.648-.263l-.5-.2q-.182-.073-.5-.215t-.506-.251q-.19-.109-.458-.287A2.852,2.852,0,0,1,11.022,9a5.047,5.047,0,0,1-.352-.4,1.981,1.981,0,0,1-.287-.47,3.248,3.248,0,0,1-.17-.538,2.811,2.811,0,0,1-.069-.632,2.769,2.769,0,0,1,.794-1.96A3.705,3.705,0,0,1,13,3.92V2.463a.263.263,0,0,1,.259-.259h1.093a.249.249,0,0,1,.259.259V3.888a4.5,4.5,0,0,1,.895.186,5.188,5.188,0,0,1,.7.271,3.9,3.9,0,0,1,.514.3q.243.17.316.235T17.165,5a.234.234,0,0,1,.04.308l-.656,1.182a.221.221,0,0,1-.186.13.258.258,0,0,1-.219-.057q-.024-.024-.117-.1t-.316-.215a4.179,4.179,0,0,0-.474-.259,3.617,3.617,0,0,0-.6-.211,2.7,2.7,0,0,0-.692-.093,2.1,2.1,0,0,0-1.255.348,1.089,1.089,0,0,0-.417,1.288.911.911,0,0,0,.239.336,3.569,3.569,0,0,0,.32.267,2.852,2.852,0,0,0,.453.251q.3.142.49.219t.567.223q.429.162.656.255t.615.283a4.892,4.892,0,0,1,.611.344,5.17,5.17,0,0,1,.5.4,2.1,2.1,0,0,1,.429.514,2.934,2.934,0,0,1,.255.619,2.672,2.672,0,0,1,.105.761Z" transform="translate(-1.654 3.506)" fill="#01ad42"/>
    </g>
  </g>
</svg>
