<svg xmlns="http://www.w3.org/2000/svg" width="54" height="54" viewBox="0 0 54 54">
  <g id="Group_9613" data-name="Group 9613" transform="translate(0 0.187)">
    <circle id="Ellipse_47" data-name="Ellipse 47" cx="27" cy="27" r="27" transform="translate(0 -0.187)" fill="#fff"/>
    <circle id="Ellipse_792" data-name="Ellipse 792" cx="27" cy="27" r="27" transform="translate(0 -0.187)" fill="#f7e921" opacity="0.15"/>
    <g id="Group_10496" data-name="Group 10496" transform="translate(17 14.813)">
      <path id="Path_27175" data-name="Path 27175" d="M-477.859,743.163c-.1-.1-.246-.084-.369-.126a2.581,2.581,0,0,1-1.792-2.494q-.017-4.289,0-8.579a2.572,2.572,0,0,1,2.656-2.622q6.845-.007,13.69,0a2.559,2.559,0,0,1,2.65,2.6q.031,4.3,0,8.6a2.547,2.547,0,0,1-2.163,2.569c-.018,0-.032.031-.048.047Zm7.365-12.1v.006h-6.781a.9.9,0,0,0-1.022,1.024q0,4.162,0,8.325a.9.9,0,0,0,1.024,1.022h13.512a.9.9,0,0,0,1.019-1.028q0-4.163,0-8.325a.9.9,0,0,0-1.021-1.023Z" transform="translate(480.029 -719.552)" fill="#f7e921"/>
      <path id="Path_27176" data-name="Path 27176" d="M-428.755,592.115c.029-.7-.041-1.485.058-2.267a6.06,6.06,0,0,1,4.612-5.053,6.043,6.043,0,0,1,7.324,4.813,5.886,5.886,0,0,1,.095,1.108q.006,1.67,0,3.341a.88.88,0,0,1-.589.906.872.872,0,0,1-1.147-.9c-.005-1.164.016-2.329-.009-3.492a4.074,4.074,0,0,0-1.78-3.38,4.094,4.094,0,0,0-4.443-.363,4.1,4.1,0,0,0-2.385,3.767c-.033,1.2-.005,2.4-.008,3.594a.872.872,0,0,1-.59.855.868.868,0,0,1-.971-.3.9.9,0,0,1-.169-.569C-428.753,593.514-428.755,592.857-428.755,592.115Z" transform="translate(432.225 -584.643)" fill="#f7e921"/>
      <path id="Path_27177" data-name="Path 27177" d="M-352.242,808.7c0-.278,0-.555,0-.833a.849.849,0,0,1,.835-.837.847.847,0,0,1,.884.815q.017.87,0,1.741a.864.864,0,0,1-.861.846.865.865,0,0,1-.857-.874C-352.246,809.276-352.242,808.99-352.242,808.7Z" transform="translate(360.888 -791.99)" fill="#f7e921"/>
    </g>
  </g>
</svg>
