<svg xmlns="http://www.w3.org/2000/svg" width="54" height="54" viewBox="0 0 54 54">
  <g id="Group_10577" data-name="Group 10577" transform="translate(0 0.07)">
    <circle id="Ellipse_47" data-name="Ellipse 47" cx="27" cy="27" r="27" transform="translate(0 -0.07)" fill="#fff"/>
    <circle id="Ellipse_796" data-name="Ellipse 796" cx="27" cy="27" r="27" transform="translate(0 -0.07)" fill="#622f89" opacity="0.15"/>
    <path id="Icon_metro-shop" data-name="Icon metro-shop" d="M9.806,10.461l.879-5.834H6.113l-1.91,5a1.753,1.753,0,0,0-.09.556c0,1.227,1.278,2.223,2.857,2.223a2.711,2.711,0,0,0,2.836-1.945Zm4.308,1.945c1.578,0,2.857-1,2.857-2.223,0-.046,0-.091-.006-.134L16.4,4.627H11.829l-.567,5.417c0,.046,0,.091,0,.139,0,1.227,1.279,2.223,2.857,2.223Zm5.556,1.162v4.394H8.558V13.575a4.676,4.676,0,0,1-1.588.276,4.582,4.582,0,0,1-.635-.054v7.055a1.559,1.559,0,0,0,1.554,1.556H20.337a1.561,1.561,0,0,0,1.556-1.556V13.8a4.775,4.775,0,0,1-.635.054A4.618,4.618,0,0,1,19.671,13.568Zm4.356-3.941-1.912-5H17.544l.878,5.825a2.7,2.7,0,0,0,2.837,1.954c1.578,0,2.857-1,2.857-2.223a1.785,1.785,0,0,0-.089-.556Z" transform="translate(12.887 12.974)" fill="#622f89"/>
  </g>
</svg>
