<svg xmlns="http://www.w3.org/2000/svg" width="26.5" height="26.5" viewBox="0 0 26.5 26.5">
  <g id="Layer_2" data-name="Layer 2" transform="translate(-0.733 -0.733)">
    <g id="bell" transform="translate(0.592 0.592)">
      <rect id="Rectangle_652" data-name="Rectangle 652" width="26" height="26" transform="translate(0.391 0.391)" fill="#4fb174" stroke="#fff" stroke-width="0.5" opacity="0"/>
      <path id="Path_30126" data-name="Path 30126" d="M23.408,17.388l-2.1-2.108v-5.2a7.991,7.991,0,0,0-6.78-8.015A7.852,7.852,0,0,0,5.655,9.84v5.44l-2.1,2.108a1.91,1.91,0,0,0,1.351,3.25H8.823v.4a4.473,4.473,0,0,0,4.66,4.264,4.473,4.473,0,0,0,4.66-4.264v-.4h3.914a1.91,1.91,0,0,0,1.351-3.25Zm-7.6,3.646a2.19,2.19,0,0,1-2.33,1.934,2.19,2.19,0,0,1-2.33-1.934v-.4h4.66Zm-9.89-2.726L7.3,16.934a2.33,2.33,0,0,0,.687-1.654V9.84A5.51,5.51,0,0,1,9.871,5.692a5.44,5.44,0,0,1,4.357-1.363,5.661,5.661,0,0,1,4.753,5.708V15.28a2.33,2.33,0,0,0,.676,1.654l1.386,1.375Z" transform="translate(-0.092 -0.258)" fill="#4fb174" stroke="#fff" stroke-width="0.5"/>
    </g>
  </g>
</svg>
