<svg xmlns="http://www.w3.org/2000/svg" width="82" height="82" viewBox="0 0 82 82">
  <g id="Group_10390" data-name="Group 10390" transform="translate(-7506.797 -245.797)">
    <path id="Polygon_47" data-name="Polygon 47" d="M50.269,5.4a6,6,0,0,1,9.35,3.873l1.236,7.005a6,6,0,0,0,4.867,4.867l7.005,1.236a6,6,0,0,1,3.873,9.35l-4.08,5.827a6,6,0,0,0,0,6.882l4.08,5.827a6,6,0,0,1-3.873,9.35l-7.005,1.236a6,6,0,0,0-4.867,4.867l-1.236,7.005a6,6,0,0,1-9.35,3.873l-5.827-4.08a6,6,0,0,0-6.882,0L31.731,76.6a6,6,0,0,1-9.35-3.873l-1.236-7.005a6,6,0,0,0-4.867-4.867L9.274,59.619A6,6,0,0,1,5.4,50.269l4.08-5.827a6,6,0,0,0,0-6.882L5.4,31.731a6,6,0,0,1,3.873-9.35l7.005-1.236a6,6,0,0,0,4.867-4.867l1.236-7.005A6,6,0,0,1,31.731,5.4l5.827,4.08a6,6,0,0,0,6.882,0Z" transform="translate(7506.797 245.797)" fill="#dbffeb"/>
    <path id="Icon_feather-check" data-name="Icon feather-check" d="M37.579,18.027,16.77,38.864,6.434,28.417" transform="translate(7525.754 258.238)" fill="none" stroke="#5ac08b" stroke-linecap="round" stroke-linejoin="round" stroke-width="7"/>
  </g>
</svg>
