<svg xmlns="http://www.w3.org/2000/svg" width="23.393" height="16" viewBox="0 0 23.393 16">
  <g id="Group_10359" data-name="Group 10359" transform="translate(-50.287 -827.371)">
    <path id="Path_29175" data-name="Path 29175" d="M73.68,842.862a.878.878,0,0,1-.919.509q-10.8-.013-21.608-.006c-.627,0-.866-.24-.866-.868q0-1.062,0-2.124a.7.7,0,0,1,.736-.815,1.156,1.156,0,0,0,1.088-1.043,1.138,1.138,0,0,0-.847-1.2,2.158,2.158,0,0,0-.315-.04.693.693,0,0,1-.661-.732q0-1.165,0-2.33a.7.7,0,0,1,.734-.754,1.137,1.137,0,0,0,1.092-1.172,1.15,1.15,0,0,0-1.072-1.105c-.563-.063-.755-.277-.755-.844,0-.739,0-1.477,0-2.216a.691.691,0,0,1,.755-.749q10.941,0,21.882,0a.794.794,0,0,1,.755.505Zm-8.492-.868q3.448,0,6.9,0c.164,0,.23-.021.229-.214q-.01-6.417,0-12.835c0-.174-.044-.209-.212-.208-1.378.007-2.756,0-4.134,0q-4.83,0-9.66,0c-.137,0-.217,0-.213.183a.682.682,0,1,1-1.36-.013c0-.149-.046-.173-.18-.17-.472.008-.944,0-1.416,0-1.1,0-2.192,0-3.289,0-.164,0-.2.045-.2.2a6.77,6.77,0,0,1,0,.776c-.009.152.051.2.183.253a2.5,2.5,0,0,1-.01,4.711c-.123.045-.179.093-.173.234.013.312.009.624,0,.936a.171.171,0,0,0,.135.193,2.506,2.506,0,0,1,0,4.743.168.168,0,0,0-.132.194c0,.274.013.549,0,.822-.01.167.049.195.2.194q2.329-.009,4.659,0c.184,0,.22-.053.219-.225a.68.68,0,1,1,1.359,0c0,.205.068.225.243.224Q61.763,841.989,65.188,841.994Z" transform="translate(0)" fill="#fff"/>
    <path id="Path_29176" data-name="Path 29176" d="M224.529,897.842c.081-.475.138-1.031.277-1.566a.927.927,0,0,0-.346-1.1c-.386-.3-.715-.682-1.071-1.026a.682.682,0,0,1-.221-.76.7.7,0,0,1,.634-.474c.64-.085,1.279-.186,1.919-.274a.278.278,0,0,0,.238-.174c.281-.58.574-1.155.853-1.737a.7.7,0,0,1,1.312,0c.276.574.569,1.14.843,1.716a.325.325,0,0,0,.292.2c.648.087,1.295.181,1.941.278a.689.689,0,0,1,.382,1.191q-.707.7-1.423,1.386a.282.282,0,0,0-.1.294c.117.612.214,1.228.321,1.841.1.57-.2.979-.7.949a.891.891,0,0,1-.362-.126c-.571-.3-1.143-.6-1.712-.9a.247.247,0,0,0-.268,0c-.6.319-1.192.636-1.795.939A.688.688,0,0,1,224.529,897.842Zm4.285-1.192c-.059-.36-.092-.678-.167-.986a.841.841,0,0,1,.3-.893c.233-.21.441-.447.672-.685-.341-.051-.66-.115-.983-.144a.81.81,0,0,1-.723-.536c-.129-.294-.284-.576-.445-.9-.174.352-.332.661-.48.974a.749.749,0,0,1-.634.452c-.342.041-.682.1-1,.148.241.258.472.518.717.765a.77.77,0,0,1,.234.744c-.068.338-.117.681-.18,1.06.348-.182.66-.337.964-.506a.733.733,0,0,1,.757,0C228.152,896.307,228.462,896.465,228.814,896.65Z" transform="translate(-162.288 -59.062)" fill="#fff"/>
    <path id="Path_29177" data-name="Path 29177" d="M157.148,892.474c0,.319,0,.639,0,.958a.685.685,0,1,1-1.369,0q-.005-.958,0-1.917a.684.684,0,1,1,1.368,0C157.152,891.835,157.148,892.155,157.148,892.474Z" transform="translate(-99.048 -59.569)" fill="#fff"/>
    <path id="Path_29178" data-name="Path 29178" d="M155.783,972.945c0-.319,0-.639,0-.958a.684.684,0,1,1,1.368-.005q.008.97,0,1.94a.684.684,0,1,1-1.368.005C155.778,973.6,155.783,973.272,155.783,972.945Z" transform="translate(-99.053 -135.119)" fill="#fff"/>
  </g>
</svg>
