<svg id="Group_10053" data-name="Group 10053" xmlns="http://www.w3.org/2000/svg" xmlns:xlink="http://www.w3.org/1999/xlink" width="538.327" height="299.733" viewBox="0 0 538.327 299.733">
  <defs>
    <clipPath id="clip-path">
      <rect id="Rectangle_527" data-name="Rectangle 527" width="538.327" height="299.733" fill="none"/>
    </clipPath>
  </defs>
  <g id="Group_10050" data-name="Group 10050">
    <g id="Group_10049" data-name="Group 10049" clip-path="url(#clip-path)">
      <path id="Path_28760" data-name="Path 28760" d="M523.3,130.591a5.237,5.237,0,0,0,3.413,2.522c13.71,5.031,15.469,26.445,4.267,35.509a31.491,31.491,0,0,1-19.395,6.843c-15.469.477-30.962.214-46.445.162-3.519-.012-3.6-.177-3.732-3.713-.129-3.49-.08-6.988-.082-10.483q-.01-31.2-.008-62.408c0-1.664,0-3.329.046-4.992.133-4.961.142-5.006,4.978-5.022,10.655-.036,21.311-.021,31.967-.026,4.825,0,9.64-.091,14.436.783a52.878,52.878,0,0,1,10.022,2.9c11.378,4.5,14.887,16.648,12.016,26.436a14.093,14.093,0,0,1-5.778,7.914c-1.788,1.193-3.642,2.286-5.705,3.573m-26.933,10.2v-.022c-2.983,0-5.969-.093-8.948.025-3.391.134-3.783.5-3.91,3.735-.124,3.142.011,6.293-.026,9.44-.029,2.476,1.088,3.625,3.608,3.6,5.8-.066,11.6-.01,17.4-.064a14.824,14.824,0,0,0,6.2-1.685,7.376,7.376,0,0,0,1.1-12.681,12.133,12.133,0,0,0-6.969-2.344q-4.225-.006-8.45,0m-1.147-17.116v.031c2.493,0,4.987-.036,7.479.013a10.645,10.645,0,0,0,4.789-1.173,7.259,7.259,0,0,0,4.539-6.584c.165-3.156-1.358-5.393-3.929-7a11.2,11.2,0,0,0-5.683-1.66c-4.983-.147-9.97-.124-14.952-.285-2.465-.079-3.846.951-3.914,3.391-.1,3.486-.05,6.976-.037,10.464.008,2.136,1.253,2.854,3.231,2.82,2.825-.048,5.651-.012,8.477-.012" fill="#63b45d"/>
      <path id="Path_28761" data-name="Path 28761" d="M396.988,117.547c0,7.323.029,14.647-.014,21.97a32.578,32.578,0,0,0,1.249,8.352c1.413,5.5,5.15,8.5,10.373,9.613a21.013,21.013,0,0,0,11.806-.717,11.748,11.748,0,0,0,7.628-7.959,32.526,32.526,0,0,0,1.4-9.346q.1-22.218.186-44.437c.02-6.052,0-6.064,5.952-6.051,4.495.009,8.992.117,13.486.054,2.255-.032,3.137.76,3.423,3.125.624,5.157.188,10.307.225,15.445.091,12.474.245,24.947-.314,37.429-.634,14.181-8.362,25.491-22.844,29.942-12.3,3.779-24.6,3.641-36.588-1.52-11.124-4.789-16.762-13.609-18.476-25.3-1.117-7.615-.714-15.276-.747-22.921q-.069-15.729.018-31.457c.031-4.683.232-4.815,4.763-4.853,4.662-.04,9.325-.056,13.987.007,4.211.057,4.42.257,4.449,4.654.053,7.989.015,15.978.015,23.967Z" fill="#63b45d"/>
      <path id="Path_28762" data-name="Path 28762" d="M236.033,134.674c.4.532.536.926.781,1.012,9.787,3.428,12.927,11.134,13.51,20.627.385,6.27.869,12.553,3.421,18.764-3.524,1.237-6.98.5-10.366.539-1.658.019-2.193-1.333-2.575-2.627a55.7,55.7,0,0,1-2.125-12.246,77.556,77.556,0,0,0-.85-8.43c-1.362-7.745-7.072-12.666-14.891-12.777-7.984-.114-15.971-.071-23.957-.013-3.717.027-3.843.155-3.868,4.045-.062,9.312-.005,18.625-.049,27.937-.019,4.125-.077,4.225-4.154,4.193-9.17-.072-7.977,1.243-8-7.852-.067-25.443-.033-50.886-.038-76.329,0-1,.058-2,0-2.992-.144-2.341.917-3.292,3.253-3.23,13.791.369,27.6-.711,41.383.677A38.1,38.1,0,0,1,237.17,88.3c13.011,4.9,18.514,16.577,15.254,30.749-1.531,6.658-6.078,10.885-12.189,13.589-1.335.591-2.946.582-4.2,2.036m-40.924-22.212h-.015c0,4.646.1,9.3-.04,13.937-.077,2.556.767,3.5,3.42,3.439,7.467-.18,14.942-.005,22.407-.206a37.532,37.532,0,0,0,8.326-1.273c7.955-2.063,12.119-7.721,12.06-16.021-.057-7.849-4.439-13.444-12.126-15.574a30.882,30.882,0,0,0-7.837-1.277c-7.635-.1-15.273.037-22.907-.1-2.756-.048-3.37,1.233-3.317,3.632.1,4.478.029,8.96.029,13.44" fill="#606060"/>
      <path id="Path_28763" data-name="Path 28763" d="M44.606,166.849c14.762.651,26.734-8.869,29.272-24.357.776-4.741.806-4.749,5.841-4.359,7.957.615,7.193-.335,5.534,7.472-5.519,25.968-26.389,33.937-47.018,31.4C15.991,174.273,1.2,156.845.077,133.28c-.5-10.539,1.411-20.59,7.272-29.559,9.4-14.381,22.967-20.665,39.923-19.908,10.477.468,19.881,3.726,27.5,11.29,6.958,6.905,9.889,15.6,11.32,24.991.232,1.522-.081,2.657-1.95,2.7-.662.015-1.322.147-1.982.226-6.988.836-7.011.82-8.574-5.8-3.243-13.728-12.7-22.04-26.065-22.91-15.084-.982-27.023,6.214-32.053,19.505a46.4,46.4,0,0,0-.655,31.8c4.253,12.794,15.272,22.061,29.79,21.233" fill="#606060"/>
      <path id="Path_28764" data-name="Path 28764" d="M324.605.018a73.16,73.16,0,0,1,48.878,19.344c8.4,7.518,14.286,16.516,18.655,26.7,2.006,4.675,1.609,7.877-1.182,10.537-3.434,3.274-8.14,2.781-10.59-1.246a57.524,57.524,0,0,1-2.822-5.833c-8.23-17.8-22.04-29.165-40.989-33.4-18.774-4.193-35.961.209-50.9,12.61-6.775,5.626-11.626,12.683-15.368,20.57a45.905,45.905,0,0,1-2.384,4.936,7.466,7.466,0,0,1-9.145,3.038,6.907,6.907,0,0,1-4.019-8.227,33.6,33.6,0,0,1,2.95-7.9C266.122,25.207,278.151,13,294.954,5.883A71.051,71.051,0,0,1,324.605.018" fill="#63b45d"/>
      <path id="Path_28765" data-name="Path 28765" d="M88.581,175.735c2.277-5.646,4.173-10.392,6.1-15.125Q109,125.486,123.336,90.368c2.5-6.14,2.24-5.022,7.564-5.027,7.915-.006,7.9.035,10.987,7.48q16.365,39.418,32.757,78.826c.255.614.548,1.213.8,1.829.6,1.448.149,2.238-1.465,2.259-.333.005-.667-.021-1-.007-9.44.4-9.449.4-12.981-8.186-2.024-4.922-4.118-9.819-5.974-14.8-1.032-2.773-2.708-3.718-5.648-3.679-10.99.147-21.985.182-32.973-.018-3.438-.062-5.042,1.27-6.173,4.362-2.4,6.558-5.211,12.964-7.69,19.495-.769,2.026-1.875,2.945-4.037,2.861-2.639-.1-5.286-.024-8.925-.024m42.373-76.217c-2.9,7.123-5.675,13.864-8.4,20.622-2.239,5.541-4.435,11.1-6.639,16.654-.68,1.715-.5,2.94,1.756,2.937q13.956-.022,27.912-.03c2.147,0,2.5-1.176,1.862-2.953-.392-1.094-.743-2.205-1.185-3.279q-6.167-14.962-12.377-29.906c-.549-1.314-.851-2.843-2.924-4.045" fill="#606060"/>
      <path id="Path_28766" data-name="Path 28766" d="M323.372,36.4c-15.615-.468-30.807,11.932-34.487,25.422a20.46,20.46,0,0,1-1.349,3.744c-1.308,2.627-3.644,3.669-6.144,2.9-2.735-.845-4.02-2.676-3.659-5.7a33.612,33.612,0,0,1,4.637-12.543c9.185-16.042,23.549-24.27,41.735-24.506,14.44-.187,26.671,6,36.279,17.02a44.736,44.736,0,0,1,9.768,19.352c.731,3.049-.593,5.582-3.179,6.35a5.229,5.229,0,0,1-6.544-3.107c-.546-1.2-.848-2.516-1.281-3.772C354.5,48.1,341.355,35.909,323.372,36.4" fill="#63b45d"/>
      <path id="Path_28767" data-name="Path 28767" d="M496.369,140.792q4.226,0,8.45,0a12.138,12.138,0,0,1,6.97,2.343,7.377,7.377,0,0,1-1.1,12.682,14.823,14.823,0,0,1-6.2,1.685c-5.8.054-11.6,0-17.4.064-2.52.028-3.636-1.122-3.608-3.6.037-3.147-.1-6.3.026-9.441.127-3.238.519-3.6,3.911-3.734,2.978-.118,5.964-.025,8.947-.025Z" fill="#f1f2f2"/>
      <path id="Path_28768" data-name="Path 28768" d="M495.222,123.676c-2.826,0-5.652-.036-8.477.012-1.978.034-3.223-.684-3.231-2.82-.013-3.488-.059-6.978.037-10.464.068-2.44,1.449-3.47,3.914-3.391,4.982.161,9.969.138,14.952.285a11.2,11.2,0,0,1,5.683,1.66c2.571,1.612,4.094,3.849,3.929,7a7.259,7.259,0,0,1-4.539,6.584,10.645,10.645,0,0,1-4.789,1.173c-2.492-.049-4.986-.013-7.479-.013Z" fill="#f1f2f2"/>
      <path id="Path_28769" data-name="Path 28769" d="M420.448,246.266q2.615,2.71,2.615,7.917V272.3h-4.245V254.556a7.74,7.74,0,0,0-1.752-5.421,6.329,6.329,0,0,0-4.912-1.913,13.73,13.73,0,0,0-7.109,1.807,11.349,11.349,0,0,1,.692,4.251V272.3h-4.245V254.556a7.814,7.814,0,0,0-1.728-5.421,6.249,6.249,0,0,0-4.887-1.913,15.3,15.3,0,0,0-6.516,1.329V272.3h-4.246V243.875a7.047,7.047,0,0,1,4,1.116,23.535,23.535,0,0,1,8.194-1.436q4.639,0,7.01,2.658,3.652-2.656,9.824-2.658a9.681,9.681,0,0,1,7.306,2.711" fill="#4d4d4d"/>
      <path id="Path_28770" data-name="Path 28770" d="M434.936,271a12.3,12.3,0,0,1-4.764-5.154,18.345,18.345,0,0,1,0-15.33,12.341,12.341,0,0,1,4.764-5.128,14.6,14.6,0,0,1,14.167,0,12.348,12.348,0,0,1,4.764,5.128,18.345,18.345,0,0,1,0,15.33A12.3,12.3,0,0,1,449.1,271a14.6,14.6,0,0,1-14.167,0m11.823-3.214a9.019,9.019,0,0,0,3.209-3.879,13.744,13.744,0,0,0,1.135-5.739,13.561,13.561,0,0,0-1.135-5.712,9.055,9.055,0,0,0-3.209-3.853,8.349,8.349,0,0,0-4.739-1.381,8.11,8.11,0,0,0-6.59,3.028,13.9,13.9,0,0,0,0,15.888,8.112,8.112,0,0,0,6.59,3.03,8.341,8.341,0,0,0,4.739-1.382" fill="#4d4d4d"/>
      <path id="Path_28771" data-name="Path 28771" d="M480.77,245.416a12.353,12.353,0,0,1,4.516,5.207,17.772,17.772,0,0,1,1.6,7.759,16.161,16.161,0,0,1-1.7,7.572,12.276,12.276,0,0,1-4.839,5.074,14.21,14.21,0,0,1-7.231,1.807,23.545,23.545,0,0,1-4.147-.372,19.4,19.4,0,0,1-3.8-1.063,6.589,6.589,0,0,1-3.949,1.17V231.76l4.245-1.275v15.941a11.54,11.54,0,0,1,3.876-2.126,14.916,14.916,0,0,1,4.714-.744,12.217,12.217,0,0,1,6.714,1.86m-1.136,20.777a10.937,10.937,0,0,0,2.864-7.918,13.381,13.381,0,0,0-1.185-5.791,9.158,9.158,0,0,0-3.333-3.88,8.962,8.962,0,0,0-4.961-1.381,10.925,10.925,0,0,0-4,.77,11.984,11.984,0,0,0-3.555,2.152V267.84a17.517,17.517,0,0,0,6.566,1.329,10.063,10.063,0,0,0,7.6-2.976" fill="#4d4d4d"/>
      <path id="Path_28772" data-name="Path 28772" d="M492.79,237.418a3.261,3.261,0,0,1,0-4.2,2.545,2.545,0,0,1,1.95-.824,2.628,2.628,0,0,1,1.975.824,3.185,3.185,0,0,1,0,4.2,2.621,2.621,0,0,1-1.975.824,2.538,2.538,0,0,1-1.95-.824m4.121,34.885h-4.245V244.087h4.245Z" fill="#4d4d4d"/>
      <path id="Path_28773" data-name="Path 28773" d="M508.511,230.484V272.3h-4.245V231.759Z" fill="#4d4d4d"/>
      <path id="Path_28774" data-name="Path 28774" d="M538.228,259.869H518.68q.69,9.3,8.984,9.3a23.059,23.059,0,0,0,4.368-.478,26.991,26.991,0,0,0,4.517-1.276v3.507a22.076,22.076,0,0,1-4.591,1.382,26.489,26.489,0,0,1-5.182.531,12.27,12.27,0,0,1-6.59-1.754,11.519,11.519,0,0,1-4.394-5.074,20.363,20.363,0,0,1-.049-15.49,11.991,11.991,0,0,1,4.245-5.128,11.909,11.909,0,0,1,12.613-.052,11.76,11.76,0,0,1,4.22,5.022,17.463,17.463,0,0,1,1.506,7.438q0,1.011-.1,2.072M520.9,249.72a12.659,12.659,0,0,0-2.27,7.121h15.351a12.617,12.617,0,0,0-2.27-7.148,6.848,6.848,0,0,0-10.811.027" fill="#4d4d4d"/>
      <path id="Path_28775" data-name="Path 28775" d="M325.269,299.733a42.73,42.73,0,0,1-18.054-81.456c1.211-.432,3.579-1.378,3.579-1.378s1.628-.538,2.5-.912a42.676,42.676,0,0,1,5.783-1.256,42.726,42.726,0,1,1,6.191,85" fill="#63b45d"/>
      <path id="Path_28776" data-name="Path 28776" d="M342.479,246.9l-23.07-10.872v6.721l20.478,9.651a7.607,7.607,0,0,1-.091,13.8l-20.4,9.3a3.976,3.976,0,0,1-4.066,0,4.023,4.023,0,0,1-2.034-3.523V215.987c-.843.246-1.68.517-2.5.813q-1.833.661-3.577,1.476v53.706a10.115,10.115,0,0,0,15.026,8.89l20.072-9.137a13.686,13.686,0,0,0,.164-24.837" fill="#fff"/>
    </g>
  </g>
  <text id="BY" transform="translate(214.229 272.303)" fill="#787878" font-size="44.029" font-family="StagSans-Regular"><tspan x="0" y="0" letter-spacing="-0.02em">B</tspan><tspan y="0">Y</tspan></text>
  <g id="Group_10052" data-name="Group 10052">
    <g id="Group_10051" data-name="Group 10051" clip-path="url(#clip-path)">
      <path id="Path_28777" data-name="Path 28777" d="M283.505,89.119v86.487h22.632V141.739h35.012v33.867h23.263V89.119H341.275v35.235H305.4V89.119Z" fill="#63b45d"/>
    </g>
  </g>
</svg>
