<svg xmlns="http://www.w3.org/2000/svg" width="31.43" height="40.002" viewBox="0 0 31.43 40.002">
  <g id="noun-bill-4905109" transform="translate(-157.5 -35)">
    <path id="Path_5" data-name="Path 5" d="M300.357,107.214a3.568,3.568,0,0,0-2.857,3.5v.083a3.571,3.571,0,0,0,3.572,3.572h1.471a.671.671,0,0,1,.672.671v0a.671.671,0,0,1-.672.672h-3.614a1.429,1.429,0,1,0,0,2.857h1.429v.714a1.429,1.429,0,1,0,2.857,0v-.779a3.53,3.53,0,0,0,2.857-3.465v0a3.529,3.529,0,0,0-3.529-3.529h-1.471a.712.712,0,0,1-.714-.714v-.083a.712.712,0,0,1,.714-.714h3.572a1.429,1.429,0,1,0,0-2.857h-1.429v-.714a1.429,1.429,0,0,0-2.857,0Z" transform="translate(-128.571 -64.284)" fill="#632f89" fill-rule="evenodd"/>
    <path id="Path_6" data-name="Path 6" d="M188.93,38.571A3.572,3.572,0,0,0,185.359,35H161.072a3.572,3.572,0,0,0-3.572,3.571v32.86A3.572,3.572,0,0,0,161.072,75h24.287a3.572,3.572,0,0,0,3.572-3.571Zm-2.857,0v32.86a.714.714,0,0,1-.714.714H161.072a.714.714,0,0,1-.714-.714V38.571a.714.714,0,0,1,.714-.714h24.287a.714.714,0,0,1,.714.714Z" transform="translate(0 0)" fill="#632f89" fill-rule="evenodd"/>
    <path id="Path_7" data-name="Path 7" d="M228.931,335.357h17.144a1.429,1.429,0,1,0,0-2.857H228.931a1.429,1.429,0,1,0,0,2.857Z" transform="translate(-64.287 -273.213)" fill="#632f89" fill-rule="evenodd"/>
    <path id="Path_8" data-name="Path 8" d="M228.929,405.357h14.286a1.429,1.429,0,0,0,0-2.857H228.929a1.429,1.429,0,1,0,0,2.857Z" transform="translate(-64.285 -337.498)" fill="#632f89" fill-rule="evenodd"/>
  </g>
</svg>
