<svg xmlns="http://www.w3.org/2000/svg" width="44" height="44" viewBox="0 0 44 44">
  <g id="Group_9704" data-name="Group 9704" transform="translate(-173 -615)">
    <circle id="Ellipse_32" data-name="Ellipse 32" cx="22" cy="22" r="22" transform="translate(173 615)" fill="#fff"/>
    <g id="noun-hash-3840400" transform="translate(183.436 625.435)">
      <path id="Path_26180" data-name="Path 26180" d="M177.116,91.27a1.525,1.525,0,0,0-1.631-1.41l-3.117.227.324-4.472a1.523,1.523,0,1,0-3.039-.221l-.356,4.916-6.761.49.377-5.185a1.523,1.523,0,1,0-3.039-.221l-.91,12.539-3.559.258a1.523,1.523,0,0,0,.107,3.043c.037,0,.076,0,.113,0l3.117-.227-.324,4.472a1.523,1.523,0,0,0,1.41,1.629c.038,0,.076.005.113.005a1.523,1.523,0,0,0,1.517-1.413l.356-4.916,6.759-.464-.374,5.158a1.522,1.522,0,0,0,1.41,1.629c.037,0,.074.005.111.005a1.525,1.525,0,0,0,1.518-1.413l.91-12.539,3.561-.258a1.525,1.525,0,0,0,1.409-1.63ZM168.8,97.218h0l-6.761.491.279-3.838,6.762-.492Z" transform="translate(-153.991 -83.98)" fill="#575757"/>
      <path id="Path_26181" data-name="Path 26181" d="M155.509,208.231c.037,0,.074,0,.112,0l2.284-.166.223-3.071-2.727.2a1.523,1.523,0,0,0,.109,3.043Z" transform="translate(-153.988 -197.851)" fill="#5cb24c"/>
      <path id="Path_26182" data-name="Path 26182" d="M478.341,300.087l-2.284.165-.223,3.072,2.727-.2a1.523,1.523,0,1,0-.22-3.039Z" transform="translate(-456.846 -287.333)" fill="#5cb24c"/>
    </g>
  </g>
</svg>
