<svg xmlns="http://www.w3.org/2000/svg" width="108" height="108" viewBox="0 0 108 108">
  <g id="Group_9613" data-name="Group 9613" transform="translate(-39.904 -240.904)">
    <circle id="Ellipse_47" data-name="Ellipse 47" cx="54" cy="54" r="54" transform="translate(39.904 240.904)" fill="#dbffeb"/>
    <g id="noun-bill-4905109" transform="translate(72.706 267.925)">
      <path id="Path_5" data-name="Path 5" d="M301.354,107.987a4.813,4.813,0,0,0-3.854,4.72v.112a4.816,4.816,0,0,0,4.818,4.818H304.3a.9.9,0,0,1,.906.905v0a.9.9,0,0,1-.906.906h-4.875a1.927,1.927,0,0,0,0,3.854h1.927v.963a1.927,1.927,0,1,0,3.854,0v-1.05a4.761,4.761,0,0,0,3.854-4.673v0a4.76,4.76,0,0,0-4.76-4.76h-1.985a.96.96,0,0,1-.964-.964v-.112a.96.96,0,0,1,.964-.964h4.817a1.927,1.927,0,1,0,0-3.854h-1.927v-.964a1.927,1.927,0,1,0-3.854,0Z" transform="translate(-282.084 -97.29)" fill="#5ac08b" fill-rule="evenodd"/>
      <path id="Path_6" data-name="Path 6" d="M199.895,39.817A4.818,4.818,0,0,0,195.077,35h-32.76a4.818,4.818,0,0,0-4.818,4.817V84.14a4.818,4.818,0,0,0,4.818,4.817h32.76a4.818,4.818,0,0,0,4.818-4.817Zm-3.854,0V84.14a.963.963,0,0,1-.964.963h-32.76a.963.963,0,0,1-.964-.963V39.817a.963.963,0,0,1,.964-.963h32.76a.963.963,0,0,1,.964.963Z" transform="translate(-157.5 -35)" fill="#5ac08b" fill-rule="evenodd"/>
      <path id="Path_7" data-name="Path 7" d="M229.43,336.354h23.124a1.927,1.927,0,1,0,0-3.854H229.43a1.927,1.927,0,1,0,0,3.854Z" transform="translate(-219.794 -299.74)" fill="#5ac08b" fill-rule="evenodd"/>
      <path id="Path_8" data-name="Path 8" d="M229.427,406.354H248.7a1.927,1.927,0,0,0,0-3.854h-19.27a1.927,1.927,0,0,0,0,3.854Z" transform="translate(-219.792 -362.032)" fill="#5ac08b" fill-rule="evenodd"/>
    </g>
  </g>
</svg>
