<svg xmlns="http://www.w3.org/2000/svg" xmlns:xlink="http://www.w3.org/1999/xlink" width="70" height="70" viewBox="0 0 70 70">
  <defs>
    <filter id="Ellipse_61" x="0" y="0" width="70" height="70" filterUnits="userSpaceOnUse">
      <feOffset input="SourceAlpha"/>
      <feGaussianBlur stdDeviation="3" result="blur"/>
      <feFlood flood-opacity="0.161"/>
      <feComposite operator="in" in2="blur"/>
      <feComposite in="SourceGraphic"/>
    </filter>
  </defs>
  <g id="Group_10047" data-name="Group 10047" transform="translate(-179 -314)">
    <g transform="matrix(1, 0, 0, 1, 179, 314)" filter="url(#Ellipse_61)">
      <circle id="Ellipse_61-2" data-name="Ellipse 61" cx="26" cy="26" r="26" transform="translate(9 9)" fill="#00e556"/>
    </g>
    <g id="noun-photo-862289" transform="translate(88.081 250.398)">
      <path id="Path_26850" data-name="Path 26850" d="M122.742,89.6l-1.324,2.647h-4.765A1.849,1.849,0,0,0,114.8,94.1v11.647a1.849,1.849,0,0,0,1.853,1.853h18.53a1.849,1.849,0,0,0,1.853-1.853V94.1a1.849,1.849,0,0,0-1.853-1.853h-4.765L129.1,89.6Zm3.176,5.559a4.765,4.765,0,1,1-4.765,4.765,4.765,4.765,0,0,1,4.765-4.765Z" transform="translate(0 0)" fill="#fff"/>
    </g>
  </g>
</svg>
