<svg xmlns="http://www.w3.org/2000/svg" width="134" height="134" viewBox="0 0 134 134">
  <g id="Group_9956" data-name="Group 9956" transform="translate(-147 -263)">
    <circle id="Ellipse_38" data-name="Ellipse 38" cx="67" cy="67" r="67" transform="translate(147 263)" fill="#f5f5f5"/>
    <g id="Untitled-1" transform="translate(201 301.007)">
      <path id="Path_26830" data-name="Path 26830" d="M11.464,68.508c-.644-.15-1.3-.273-1.933-.462A7.287,7.287,0,0,1,4.069,62.6a11.957,11.957,0,0,1,.1-4.993c.742-4.049,2.122-7.935,3.17-11.906a39.053,39.053,0,0,0,1.243-5.664,6.984,6.984,0,0,0-.026-2.083c-.306-1.693-1.016-2.311-2.741-2.526a10.8,10.8,0,0,0-4.973.716c-.247.085-.495.163-.846.28.28-1.113.54-2.161.794-3.209.039-.156.169-.189.293-.234a45.732,45.732,0,0,1,7.851-2.565,12.587,12.587,0,0,1,7.9.768,7.379,7.379,0,0,1,4.01,7.239c-.208,3.932-1.562,7.564-2.532,11.3-.651,2.487-1.5,4.921-1.927,7.46a10.415,10.415,0,0,0-.182,3.7,2.544,2.544,0,0,0,2.044,2.2,9.091,9.091,0,0,0,4.687-.2c.612-.176,1.217-.378,1.875-.579,0,.579-.28,1.1-.332,1.66a2.326,2.326,0,0,1-1.914,2.226c-1.7.508-3.32,1.276-5.032,1.784a10.235,10.235,0,0,1-2.383.43c-.1,0-.234-.046-.28.1h-3.4Z" transform="translate(0 -10.515)" fill="#2e2f2f"/>
      <path id="Path_26831" data-name="Path 26831" d="M24.369,13.538a7.131,7.131,0,0,1-6.653-4.075,6.511,6.511,0,0,1,2.767-8.4,7.551,7.551,0,0,1,9.9,1.927,6.641,6.641,0,0,1-3.509,10.155,8.164,8.164,0,0,1-2.506.391Z" transform="translate(-5.965 0)" fill="#2e2f2f"/>
    </g>
  </g>
</svg>
