<svg xmlns="http://www.w3.org/2000/svg" width="54" height="54" viewBox="0 0 54 54">
  <g id="Group_9613" data-name="Group 9613" transform="translate(-40 -241)">
    <g id="Group_10333" data-name="Group 10333">
      <circle id="Ellipse_47" data-name="Ellipse 47" cx="27" cy="27" r="27" transform="translate(40 241)" fill="#fff"/>
      <g id="Group_10332" data-name="Group 10332" transform="translate(-118.907 135.584)">
        <path id="Path_29151" data-name="Path 29151" d="M346.846,299.108c0-.191.065-.421-.02-.559-.072-.116-.319-.121-.487-.18a3.411,3.411,0,0,1-.834-.4c-.151-.105-.232-.066-.338.05-.159.175-.33.339-.5.5a.873.873,0,1,1-1.24-1.228c.178-.183.355-.366.542-.539a.177.177,0,0,0,.039-.273,3.842,3.842,0,0,1-.517-1.223c-.03-.124-.074-.162-.2-.158-.273.008-.546.007-.819,0a.827.827,0,0,1-.858-.862.838.838,0,0,1,.844-.882c.273-.011.546-.009.819,0,.13,0,.181-.034.213-.171a3.843,3.843,0,0,1,.517-1.223.164.164,0,0,0-.027-.253c-.2-.186-.392-.38-.58-.579a.871.871,0,0,1,1.238-1.227c.192.181.382.366.559.561a.177.177,0,0,0,.275.03,3.78,3.78,0,0,1,1.224-.514c.147-.033.164-.1.162-.22-.005-.264-.007-.528,0-.792a.873.873,0,0,1,1.747,0c.008.264.005.528,0,.792,0,.121.015.186.162.219a3.713,3.713,0,0,1,1.224.514.177.177,0,0,0,.274-.034c.178-.194.367-.38.559-.561a.87.87,0,0,1,1.238,1.222c-.185.2-.38.393-.579.579a.165.165,0,0,0-.028.253,3.912,3.912,0,0,1,.524,1.25c.03.129.084.155.2.152q.382-.009.765,0a.883.883,0,0,1,.907.891.871.871,0,0,1-.906.856,2.137,2.137,0,0,0-.861.03c-.235.12-.182.515-.316.767-.068.128-.124.262-.193.39-.191.357-.192.356.106.654.135.135.276.266.4.408a.871.871,0,0,1-1.234,1.228c-.2-.184-.394-.379-.579-.579a.191.191,0,0,0-.295-.041,3.475,3.475,0,0,1-1.173.495c-.18.038-.206.121-.2.276.01.255.009.51,0,.765a.873.873,0,0,1-1.745-.007c0-.127,0-.255,0-.382Zm.875-7.5a2.621,2.621,0,1,0,2.634,2.6A2.613,2.613,0,0,0,347.721,291.606Z" transform="translate(-155.708 -155.693)" fill="#007e2f"/>
        <path id="Path_29152" data-name="Path 29152" d="M250.877,130.669a5.244,5.244,0,1,1,5.248-5.242A5.261,5.261,0,0,1,250.877,130.669Zm-3.493-5.257a3.5,3.5,0,1,0,3.516-3.483A3.486,3.486,0,0,0,247.384,125.411Z" transform="translate(-66.722 0)" fill="#007e2f"/>
        <path id="Path_29153" data-name="Path 29153" d="M179.269,298.578h-4.588a.889.889,0,0,1-1.01-1,21,21,0,0,1,.1-2.916,7.921,7.921,0,0,1,6.469-6.466,16.3,16.3,0,0,1,2.4-.1q1.174,0,2.349,0a.876.876,0,1,1-.008,1.747c-1.138,0-2.276,0-3.414,0a6.073,6.073,0,0,0-6.012,4.815,9.355,9.355,0,0,0-.14,2.037c0,.194.125.138.22.138q2.13,0,4.26,0h4.042a.879.879,0,1,1,0,1.748Q181.6,298.58,179.269,298.578Z" transform="translate(0 -155.673)" fill="#007e2f"/>
      </g>
    </g>
  </g>
</svg>
