<svg xmlns="http://www.w3.org/2000/svg" width="54" height="54" viewBox="0 0 54 54">
  <g id="Group_9613" data-name="Group 9613" transform="translate(-40 -241)">
    <circle id="Ellipse_47" data-name="Ellipse 47" cx="27" cy="27" r="27" transform="translate(40 241)" fill="#fff"/>
    <g id="noun-bill-4905109" transform="translate(56.395 254.503)">
      <path id="Path_5" data-name="Path 5" d="M299.428,106.493a2.408,2.408,0,0,0-1.928,2.361v.056a2.41,2.41,0,0,0,2.41,2.41h.993a.453.453,0,0,1,.453.453v0a.453.453,0,0,1-.453.453h-2.439a.964.964,0,1,0,0,1.928h.964v.482a.964.964,0,1,0,1.928,0v-.526a2.382,2.382,0,0,0,1.928-2.338v0a2.382,2.382,0,0,0-2.381-2.381h-.993a.48.48,0,0,1-.482-.482v-.056a.481.481,0,0,1,.482-.482h2.41a.964.964,0,1,0,0-1.928h-.964v-.482a.964.964,0,1,0-1.928,0Z" transform="translate(-289.787 -101.142)" fill="#007e2f" fill-rule="evenodd"/>
      <path id="Path_6" data-name="Path 6" d="M178.71,37.41A2.41,2.41,0,0,0,176.3,35H159.91a2.41,2.41,0,0,0-2.41,2.41V59.585a2.41,2.41,0,0,0,2.41,2.41H176.3a2.41,2.41,0,0,0,2.41-2.41Zm-1.928,0V59.585a.482.482,0,0,1-.482.482H159.91a.482.482,0,0,1-.482-.482V37.41a.482.482,0,0,1,.482-.482H176.3a.482.482,0,0,1,.482.482Z" transform="translate(-157.5 -35)" fill="#007e2f" fill-rule="evenodd"/>
      <path id="Path_7" data-name="Path 7" d="M228.467,334.428h11.569a.964.964,0,1,0,0-1.928H228.467a.964.964,0,1,0,0,1.928Z" transform="translate(-223.645 -316.11)" fill="#007e2f" fill-rule="evenodd"/>
      <path id="Path_8" data-name="Path 8" d="M228.464,404.428h9.641a.964.964,0,0,0,0-1.928h-9.641a.964.964,0,0,0,0,1.928Z" transform="translate(-223.644 -382.254)" fill="#007e2f" fill-rule="evenodd"/>
    </g>
  </g>
</svg>
