<svg xmlns="http://www.w3.org/2000/svg" width="54" height="54" viewBox="0 0 54 54">
  <g id="Group_9613" data-name="Group 9613" transform="translate(-40 -241)">
    <circle id="Ellipse_47" data-name="Ellipse 47" cx="27" cy="27" r="27" transform="translate(40 241)" fill="#fff"/>
    <g id="Group_9567" data-name="Group 9567" transform="translate(10.253 -245.997)">
      <g id="noun-refresh-1713562" transform="translate(44.17 500.5)">
        <path id="Path_9" data-name="Path 9" d="M203.1,211.933a.871.871,0,0,0-.744,1.061,10.583,10.583,0,0,1,.367,2.788,10.918,10.918,0,0,1-17.212,8.821l2.326-.27a.832.832,0,0,0-.052-1.654c-1.45.128-2.932.328-4.39.5a.868.868,0,0,0-.723,1l.932,4.255a.838.838,0,1,0,1.634-.343l-.419-1.945A12.587,12.587,0,0,0,204.4,215.782a12.237,12.237,0,0,0-.429-3.225.861.861,0,0,0-.786-.624c-.028,0-.056,0-.084,0Z" transform="translate(-179.248 -202.164)" fill="#007e2f" stroke="#007e2f" stroke-width="1" fill-rule="evenodd"/>
        <path id="Path_10" data-name="Path 10" d="M140.044,33.6a.84.84,0,0,0-.619.358.827.827,0,0,0-.114.7l.566,2.112A12.6,12.6,0,0,0,120.4,47.221a12.145,12.145,0,0,0,.419,3.2.836.836,0,0,0,.393.507.844.844,0,0,0,1.149-.309.83.83,0,0,0,.082-.634,10.487,10.487,0,0,1-.367-2.767A10.935,10.935,0,0,1,139.5,38.535l-2.64.447a.834.834,0,1,0,.283,1.644l4.358-.739a.839.839,0,0,0,.563-.369.828.828,0,0,0,.107-.661l-1.247-4.629h0a.831.831,0,0,0-.292-.445.842.842,0,0,0-.5-.179c-.028,0-.056,0-.084,0Z" transform="translate(-120.401 -33.603)" fill="#007e2f" stroke="#007e2f" stroke-width="1" fill-rule="evenodd"/>
      </g>
      <path id="Icon_metro-dollar2" data-name="Icon metro-dollar2" d="M17.823,12.193a3.207,3.207,0,0,1-.839,2.221,3.62,3.62,0,0,1-2.179,1.151v1.475a.26.26,0,0,1-.27.27H13.4a.274.274,0,0,1-.27-.27V15.565a5.314,5.314,0,0,1-1.075-.261,5.177,5.177,0,0,1-1.48-.78,4.8,4.8,0,0,1-.392-.316q-.105-.1-.148-.152a.256.256,0,0,1-.017-.346l.868-1.138a.262.262,0,0,1,.194-.1.209.209,0,0,1,.2.076l.017.017a4.4,4.4,0,0,0,2.049,1.054,2.945,2.945,0,0,0,.624.067,2.044,2.044,0,0,0,1.2-.362,1.181,1.181,0,0,0,.518-1.028.855.855,0,0,0-.126-.447,1.58,1.58,0,0,0-.282-.354,2.314,2.314,0,0,0-.493-.316q-.337-.173-.556-.27t-.674-.274l-.518-.211q-.19-.076-.518-.223t-.527-.261q-.2-.114-.476-.3a2.969,2.969,0,0,1-.451-.358,5.254,5.254,0,0,1-.367-.413,2.062,2.062,0,0,1-.3-.489,3.381,3.381,0,0,1-.177-.561,2.926,2.926,0,0,1-.072-.658,2.883,2.883,0,0,1,.826-2.04,3.857,3.857,0,0,1,2.15-1.13V2.473a.274.274,0,0,1,.27-.27h1.138a.26.26,0,0,1,.27.27V3.957a4.689,4.689,0,0,1,.932.194,5.4,5.4,0,0,1,.733.282,4.062,4.062,0,0,1,.535.316q.253.177.329.244t.126.118a.244.244,0,0,1,.042.32L16.82,6.663a.23.23,0,0,1-.194.135.269.269,0,0,1-.228-.059q-.025-.025-.122-.1t-.329-.223a4.35,4.35,0,0,0-.493-.27,3.765,3.765,0,0,0-.628-.219,2.813,2.813,0,0,0-.721-.1,2.191,2.191,0,0,0-1.307.362,1.133,1.133,0,0,0-.434,1.34.949.949,0,0,0,.249.35,3.715,3.715,0,0,0,.333.278,2.969,2.969,0,0,0,.472.261q.316.148.51.228t.59.232q.447.169.683.266t.641.3a5.093,5.093,0,0,1,.636.358,5.383,5.383,0,0,1,.523.422,2.183,2.183,0,0,1,.447.535,3.055,3.055,0,0,1,.266.645,2.781,2.781,0,0,1,.11.792Z" transform="translate(42.857 504.24)" fill="#007e2f"/>
    </g>
  </g>
</svg>
