<svg xmlns="http://www.w3.org/2000/svg" width="380" height="708.953" viewBox="0 0 380 708.953">
  <g id="Group_10391" data-name="Group 10391" transform="translate(-3162.999 -4702.209)">
    <path id="Subtraction_4" data-name="Subtraction 4" d="M355.5,708.953h0L342,691.7l-13.5,17.25L315,691.7l-13.5,17.25L288,691.7l-13.5,17.25L261,691.7l-13.5,17.25L234,691.7l-13.5,17.25L207,691.7l-13.5,17.25L180,691.7l-13.5,17.25L153,691.7l-13.5,17.25L126,691.7l-13.5,17.25L99,691.7l-13.5,17.25L72,691.7l-13.5,17.25L45,691.7l-13.5,17.25L18,691.7,5,708.312V283.74c.326.033.663.05,1,.05a10,10,0,1,0-1-19.95V25A24.98,24.98,0,0,1,30,0H360a24.98,24.98,0,0,1,25,25V263.84a10,10,0,0,0,0,19.9V705.756l-2.5,3.195L369,691.7l-13.5,17.25Z" transform="translate(3157.999 4702.209)" fill="#2e2f2f"/>
    <line id="Line_48" data-name="Line 48" x2="359" transform="translate(3174.5 4976.5)" fill="none" stroke="#a8a8a8" stroke-linecap="round" stroke-width="1" stroke-dasharray="10"/>
  </g>
</svg>
